<svg id="Capa_1" enable-background="new 0 0 512 512" height="512" viewBox="0 0 512 512" width="512" xmlns="http://www.w3.org/2000/svg"><path id="XMLID_2054_" d="m473.923 1.319c-5.385-2.421-11.69-1.457-16.107 2.465l-381.026 338.338c-11.416 10.264-17.964 24.955-17.964 40.307v31.064h-14.6c-8.284 0-15 6.716-15 15s6.716 15 15 15h28.651v37.309c0 8.284 6.716 15 15 15h15.875v1.198c0 8.284 6.716 15 15 15s15-6.716 15-15v-1.199h68.057c8.284 0 15-6.716 15-15s-6.716-15-15-15h-37.182v-22.309h34.692c11.647 0 22.864 4.903 30.775 13.452l13.924 15.047c2.956 3.194 6.979 4.812 11.014 4.812 3.645 0 7.298-1.32 10.184-3.991 6.081-5.626 6.448-15.117.822-21.197l-13.925-15.047c-13.57-14.665-32.813-23.076-52.794-23.076h-11.507v-129.867l158.402-140.638h63.504c40.283 0 73.056-32.772 73.056-73.056v-54.931c.001-5.905-3.464-11.261-8.851-13.681zm-339.296 464.482h-31.75v-22.309h31.75zm23.186-52.308h-68.987v-31.064c0-6.855 2.924-13.415 7.954-17.938l61.032-54.218v103.22zm294.962-343.562c0 23.741-19.314 43.056-43.056 43.056h-29.715l72.771-64.609z"/></svg>